<?xml version="1.0" encoding="UTF-8" standalone="no"?><!DOCTYPE svg PUBLIC "-//W3C//DTD SVG 1.1//EN" "http://www.w3.org/Graphics/SVG/1.1/DTD/svg11.dtd"><!-- Generated by graphviz version 2.39.20160930.0541 (20160930.0541) --><!-- Title: FlowChart Pages: 1 --><svg width="546pt" height="797pt" viewBox="0.00 0.00 546.1 797" xmlns="http://www.w3.org/2000/svg" xmlns:xlink="http://www.w3.org/1999/xlink"><defs><radialGradient id="g-terminatoro5vch7x1auldkn099vygb9" cx="0.5" cy="0.5" fx="0.9" fy="0.9" r="1" x1="0%" x2="0%" y1="100%" y2="0%" spreadMethod="pad"><stop offset="0%" stop-color="#C32F06" stop-opacity="1"/><stop offset="100%" stop-color="#C32F06" stop-opacity="1"/></radialGradient><radialGradient id="g-decisiono5vch7x1auldkn099vygb9" cx="0.5" cy="0.5" fx="0.9" fy="0.9" r="1" x1="0%" x2="0%" y1="100%" y2="0%" spreadMethod="pad"><stop offset="0%" stop-color="#d1461b" stop-opacity="1"/><stop offset="100%" stop-color="#d1461b" stop-opacity="1"/></radialGradient><radialGradient id="g-processo5vch7x1auldkn099vygb9" cx="0.5" cy="0.5" fx="0.9" fy="0.9" r="1" x1="0%" x2="0%" y1="100%" y2="0%" spreadMethod="pad"><stop offset="0%" stop-color="#3f51b5" stop-opacity="1"/><stop offset="100%" stop-color="#3f51b5" stop-opacity="1"/></radialGradient><radialGradient id="g-defaulto5vch7x1auldkn099vygb9" cx="0.5" cy="0.5" fx="0.9" fy="0.9" r="1" x1="0%" x2="0%" y1="100%" y2="0%" spreadMethod="pad"><stop offset="0%" stop-color="#005100" stop-opacity="1"/><stop offset="100%" stop-color="#005100" stop-opacity="1"/></radialGradient><radialGradient id="g-moduleo5vch7x1auldkn099vygb9" cx="0.5" cy="0.5" fx="0.9" fy="0.9" r="1" x1="0%" x2="0%" y1="100%" y2="0%" spreadMethod="pad"><stop offset="0%" stop-color="#009688" stop-opacity="1"/><stop offset="100%" stop-color="#009688" stop-opacity="1"/></radialGradient><radialGradient id="g-dataioo5vch7x1auldkn099vygb9" cx="0.5" cy="0.5" fx="0.9" fy="0.9" r="1" x1="0%" x2="0%" y1="100%" y2="0%" spreadMethod="pad"><stop offset="0%" stop-color="#607d8b" stop-opacity="1"/><stop offset="100%" stop-color="#607d8b" stop-opacity="1"/></radialGradient><radialGradient id="g-preparationo5vch7x1auldkn099vygb9" cx="0.5" cy="0.5" fx="0.9" fy="0.9" r="1" x1="0%" x2="0%" y1="100%" y2="0%" spreadMethod="pad"><stop offset="0%" stop-color="#607d8b" stop-opacity="1"/><stop offset="100%" stop-color="#607d8b" stop-opacity="1"/></radialGradient><radialGradient id="g-commento5vch7x1auldkn099vygb9" cx="0.5" cy="0.5" fx="0.9" fy="0.9" r="1" x1="0%" x2="0%" y1="100%" y2="0%" spreadMethod="pad"><stop offset="0%" stop-color="#ffab40" stop-opacity="1"/><stop offset="100%" stop-color="#ffab40" stop-opacity="1"/></radialGradient><radialGradient id="g-manualo5vch7x1auldkn099vygb9" cx="0.5" cy="0.5" fx="0.9" fy="0.9" r="1" x1="0%" x2="0%" y1="100%" y2="0%" spreadMethod="pad"><stop offset="0%" stop-color="#673ab7" stop-opacity="1"/><stop offset="100%" stop-color="#673ab7" stop-opacity="1"/></radialGradient></defs><g id="graph0" class="graph" transform="scale(0.525338 0.525338) rotate(0) translate(4 1503.6)"><title>FlowChart</title><!-- terminator_block_1 --><g id="node1" class="node"><title>terminator_block_1</title><ellipse fill="url(#g-terminatoro5vch7x1auldkn099vygb9)" stroke="#C32F06" cx="852" cy="-1481.6" rx="77.9076" ry="18"/><text text-anchor="start" x="794" y="-1479.1" font-family="Open Sans, Noto Sans SC, Noto Sans TC, Noto Sans JP, Noto Sans KR" font-size="10.00" fill="white">void channelio_free(void)</text></g><!-- process_block_2 --><g id="node2" class="node"><title>process_block_2</title><polygon fill="url(#g-processo5vch7x1auldkn099vygb9)" stroke="#3f51b5" points="879,-1436.6 825,-1436.6 825,-1400.6 879,-1400.6 879,-1436.6"/><text text-anchor="start" x="842" y="-1416.1" font-family="Open Sans, Noto Sans SC, Noto Sans TC, Noto Sans JP, Noto Sans KR" font-size="10.00" fill="white">int a</text></g><!-- terminator_block_1&#45;&gt;process_block_2 --><g id="edge1" class="edge"><title>terminator_block_1->process_block_2</title><path fill="none" stroke="#000000" d="M852,-1463.38C852,-1458.33 852,-1452.72 852,-1447.23"/><polygon fill="#000000" stroke="#000000" points="855.5,-1447 852,-1437 848.5,-1447 855.5,-1447"/></g><!-- ifs_block_3 --><g id="node3" class="node"><title>ifs_block_3</title><polygon fill="url(#g-decisiono5vch7x1auldkn099vygb9)" stroke="#d1461b" points="852,-1373.6 825,-1355.6 852,-1337.6 879,-1355.6 852,-1373.6"/><text text-anchor="start" x="845.5" y="-1353.1" font-family="Open Sans, Noto Sans SC, Noto Sans TC, Noto Sans JP, Noto Sans KR" font-size="10.00" fill="white">cio</text></g><!-- process_block_2&#45;&gt;ifs_block_3 --><g id="edge2" class="edge"><title>process_block_2->ifs_block_3</title><path fill="none" stroke="#000000" d="M852,-1400.38C852,-1395.33 852,-1389.72 852,-1384.23"/><polygon fill="#000000" stroke="#000000" points="855.5,-1384 852,-1374 848.5,-1384 855.5,-1384"/></g><!-- ifs_block_4 --><g id="node4" class="node"><title>ifs_block_4</title><polygon fill="url(#g-decisiono5vch7x1auldkn099vygb9)" stroke="#d1461b" points="933,-1300.6 856.321,-1282.6 933,-1264.6 1009.68,-1282.6 933,-1300.6"/><text text-anchor="start" x="895" y="-1280.1" font-family="Open Sans, Noto Sans SC, Noto Sans TC, Noto Sans JP, Noto Sans KR" font-size="10.00" fill="white">cio->w1_sthread</text></g><!-- ifs_block_3&#45;&gt;ifs_block_4 --><g id="edge3" class="edge"><title>ifs_block_3->ifs_block_4</title><path fill="none" stroke="#000000" d="M863.605,-1345.14C875.526,-1334.4 894.415,-1317.37 909.478,-1303.8"/><polygon fill="#000000" stroke="#000000" points="911.863,-1306.36 916.949,-1297.07 907.177,-1301.16 911.863,-1306.36"/><text text-anchor="start" x="898" y="-1317.6" font-family="Open Sans, Noto Sans SC, Noto Sans TC, Noto Sans JP, Noto Sans KR" font-weight="bold" font-size="10.00" fill="#000000"> True </text><polyline fill="none" stroke="#000000" points="926,-1313.6 897.632,-1313.6 "/></g><!-- process_block_5 --><g id="node5" class="node"><title>process_block_5</title><polygon fill="url(#g-processo5vch7x1auldkn099vygb9)" stroke="#3f51b5" points="855,-1227.6 705,-1227.6 705,-1191.6 855,-1191.6 855,-1227.6"/><text text-anchor="start" x="712" y="-1207.1" font-family="Open Sans, Noto Sans SC, Noto Sans TC, Noto Sans JP, Noto Sans KR" font-size="10.00" fill="white">sthread_twf(cio->w1_sthread)</text></g><!-- ifs_block_4&#45;&gt;process_block_5 --><g id="edge4" class="edge"><title>ifs_block_4->process_block_5</title><path fill="none" stroke="#000000" d="M907.391,-1270.38C885.475,-1259.92 853.361,-1244.6 826.86,-1231.96"/><polygon fill="#000000" stroke="#000000" points="828.279,-1228.76 817.747,-1227.61 825.265,-1235.07 828.279,-1228.76"/><text text-anchor="start" x="866" y="-1244.6" font-family="Open Sans, Noto Sans SC, Noto Sans TC, Noto Sans JP, Noto Sans KR" font-weight="bold" font-size="10.00" fill="#000000"> True </text><polyline fill="none" stroke="#000000" points="894,-1240.6 844.892,-1240.6 "/></g><!-- ifs_block_6 --><g id="node6" class="node"><title>ifs_block_6</title><polygon fill="url(#g-decisiono5vch7x1auldkn099vygb9)" stroke="#d1461b" points="916,-1164.6 834.331,-1146.6 916,-1128.6 997.669,-1146.6 916,-1164.6"/><text text-anchor="start" x="875" y="-1144.1" font-family="Open Sans, Noto Sans SC, Noto Sans TC, Noto Sans JP, Noto Sans KR" font-size="10.00" fill="white">cio->mcp_sthread</text></g><!-- ifs_block_4&#45;&gt;ifs_block_6 --><g id="edge6" class="edge"><title>ifs_block_4->ifs_block_6</title><path fill="none" stroke="#000000" d="M930.812,-1265.1C927.946,-1242.17 922.887,-1201.7 919.49,-1174.52"/><polygon fill="#000000" stroke="#000000" points="922.947,-1173.95 918.233,-1164.47 916.001,-1174.82 922.947,-1173.95"/><text text-anchor="start" x="926" y="-1208.1" font-family="Open Sans, Noto Sans SC, Noto Sans TC, Noto Sans JP, Noto Sans KR" font-weight="bold" font-size="10.00" fill="#000000"> False </text><polyline fill="none" stroke="#000000" points="956,-1204.1 923.235,-1204.1 "/></g><!-- process_block_5&#45;&gt;ifs_block_6 --><g id="edge5" class="edge"><title>process_block_5->ifs_block_6</title><path fill="none" stroke="#000000" d="M818.972,-1191.55C838.311,-1182.59 861.505,-1171.84 880.366,-1163.11"/><polygon fill="#000000" stroke="#000000" points="881.913,-1166.25 889.516,-1158.87 878.971,-1159.9 881.913,-1166.25"/></g><!-- process_block_7 --><g id="node7" class="node"><title>process_block_7</title><polygon fill="url(#g-processo5vch7x1auldkn099vygb9)" stroke="#3f51b5" points="838.5,-1091.6 681.5,-1091.6 681.5,-1055.6 838.5,-1055.6 838.5,-1091.6"/><text text-anchor="start" x="688.5" y="-1071.1" font-family="Open Sans, Noto Sans SC, Noto Sans TC, Noto Sans JP, Noto Sans KR" font-size="10.00" fill="white">sthread_twf(cio->mcp_sthread)</text></g><!-- ifs_block_6&#45;&gt;process_block_7 --><g id="edge7" class="edge"><title>ifs_block_6->process_block_7</title><path fill="none" stroke="#000000" d="M889.537,-1134.22C867.219,-1123.77 834.714,-1108.56 807.849,-1095.99"/><polygon fill="#000000" stroke="#000000" points="809.148,-1092.73 798.607,-1091.67 806.181,-1099.07 809.148,-1092.73"/><text text-anchor="start" x="848" y="-1108.6" font-family="Open Sans, Noto Sans SC, Noto Sans TC, Noto Sans JP, Noto Sans KR" font-weight="bold" font-size="10.00" fill="#000000"> True </text><polyline fill="none" stroke="#000000" points="876,-1104.6 826.123,-1104.6 "/></g><!-- nop_block_8 --><g id="node8" class="node"><title>nop_block_8</title><ellipse fill="#000000" stroke="#000000" cx="899" cy="-1026.8" rx="1.8" ry="1.8"/><text text-anchor="start" x="895.2" y="-1032.6" font-family="Open Sans, Noto Sans SC, Noto Sans TC, Noto Sans JP, Noto Sans KR" font-weight="bold" font-size="10.00" fill="#000000"> </text></g><!-- ifs_block_6&#45;&gt;nop_block_8 --><g id="edge9" class="edge"><title>ifs_block_6->nop_block_8</title><path fill="none" stroke="#000000" d="M915.103,-1128.57C913.788,-1107.5 910.721,-1071.68 904,-1041.6 903.762,-1040.53 903.475,-1039.44 903.161,-1038.35"/><polygon fill="#000000" stroke="#000000" points="906.319,-1036.78 899.706,-1028.5 899.713,-1039.09 906.319,-1036.78"/><text text-anchor="start" x="912" y="-1072.1" font-family="Open Sans, Noto Sans SC, Noto Sans TC, Noto Sans JP, Noto Sans KR" font-weight="bold" font-size="10.00" fill="#000000"> False </text><polyline fill="none" stroke="#000000" points="942,-1068.1 908.846,-1068.1 "/></g><!-- process_block_7&#45;&gt;nop_block_8 --><g id="edge8" class="edge"><title>process_block_7->nop_block_8</title><path fill="none" stroke="#000000" d="M813.741,-1055.51C847.966,-1043.98 887.574,-1030.65 896.941,-1027.49"/></g><!-- ifs_block_9 --><g id="node9" class="node"><title>ifs_block_9</title><polygon fill="url(#g-decisiono5vch7x1auldkn099vygb9)" stroke="#d1461b" points="619,-998 441.857,-980 619,-962 796.143,-980 619,-998"/><text text-anchor="start" x="520.5" y="-977.5" font-family="Open Sans, Noto Sans SC, Noto Sans TC, Noto Sans JP, Noto Sans KR" font-size="10.00" fill="white">safe_array_count(cio->gpio_thread_arr) > 0</text></g><!-- nop_block_8&#45;&gt;ifs_block_9 --><g id="edge17" class="edge"><title>nop_block_8->ifs_block_9</title><path fill="none" stroke="#000000" d="M897.212,-1026.5C882.012,-1023.96 773.158,-1005.77 696.215,-992.906"/><polygon fill="#000000" stroke="#000000" points="696.496,-989.404 686.056,-991.208 695.342,-996.309 696.496,-989.404"/></g><!-- process_block_10 --><g id="node10" class="node"><title>process_block_10</title><polygon fill="url(#g-processo5vch7x1auldkn099vygb9)" stroke="#3f51b5" points="712.5,-925 525.5,-925 525.5,-889 712.5,-889 712.5,-925"/><text text-anchor="start" x="532.5" y="-904.5" font-family="Open Sans, Noto Sans SC, Noto Sans TC, Noto Sans JP, Noto Sans KR" font-size="10.00" fill="white">safe_array_lock(cio->gpio_thread_arr)</text></g><!-- ifs_block_9&#45;&gt;process_block_10 --><g id="edge10" class="edge"><title>ifs_block_9->process_block_10</title><path fill="none" stroke="#000000" d="M619,-961.955C619,-953.883 619,-944.176 619,-935.182"/><polygon fill="#000000" stroke="#000000" points="622.5,-935.09 619,-925.09 615.5,-935.09 622.5,-935.09"/><text text-anchor="start" x="619" y="-942" font-family="Open Sans, Noto Sans SC, Noto Sans TC, Noto Sans JP, Noto Sans KR" font-weight="bold" font-size="10.00" fill="#000000"> True </text><polyline fill="none" stroke="#000000" points="647,-938 619,-938 "/></g><!-- process_block_16 --><g id="node16" class="node"><title>process_block_16</title><polygon fill="url(#g-processo5vch7x1auldkn099vygb9)" stroke="#3f51b5" points="440.5,-925 253.5,-925 253.5,-889 440.5,-889 440.5,-925"/><text text-anchor="start" x="260.5" y="-904.5" font-family="Open Sans, Noto Sans SC, Noto Sans TC, Noto Sans JP, Noto Sans KR" font-size="10.00" fill="white">safe_array_free(cio->gpio_thread_arr)</text></g><!-- ifs_block_9&#45;&gt;process_block_16 --><g id="edge19" class="edge"><title>ifs_block_9->process_block_16</title><path fill="none" stroke="#000000" d="M570.058,-966.865C529.433,-955.962 470.929,-940.26 424.029,-927.673"/><polygon fill="#000000" stroke="#000000" points="424.773,-924.249 414.208,-925.037 422.959,-931.01 424.773,-924.249"/><text text-anchor="start" x="500" y="-942" font-family="Open Sans, Noto Sans SC, Noto Sans TC, Noto Sans JP, Noto Sans KR" font-weight="bold" font-size="10.00" fill="#000000"> False </text><polyline fill="none" stroke="#000000" points="530,-938 460.919,-938 "/></g><!-- process_block_11 --><g id="node11" class="node"><title>process_block_11</title><polygon fill="url(#g-processo5vch7x1auldkn099vygb9)" stroke="#3f51b5" points="763.5,-862 474.5,-862 474.5,-826 763.5,-826 763.5,-862"/><text text-anchor="start" x="481.5" y="-842.5" font-family="Open Sans, Noto Sans SC, Noto Sans TC, Noto Sans JP, Noto Sans KR" font-size="10.00" fill="white">TGpioThreadItem </text><text text-anchor="start" x="565.5" y="-842.5" font-family="Open Sans, Noto Sans SC, Noto Sans TC, Noto Sans JP, Noto Sans KR" font-style="italic" font-size="10.00" fill="white">gti = safe_array_get(cio->gpio_thread_arr, 0)</text></g><!-- process_block_10&#45;&gt;process_block_11 --><g id="edge11" class="edge"><title>process_block_10->process_block_11</title><path fill="none" stroke="#000000" d="M619,-888.778C619,-883.729 619,-878.123 619,-872.634"/><polygon fill="#000000" stroke="#000000" points="622.5,-872.399 619,-862.4 615.5,-872.4 622.5,-872.399"/></g><!-- ifs_block_12 --><g id="node12" class="node"><title>ifs_block_12</title><polygon fill="url(#g-decisiono5vch7x1auldkn099vygb9)" stroke="#d1461b" points="619,-799 533.005,-781 619,-763 704.995,-781 619,-799"/><text text-anchor="start" x="575.5" y="-778.5" font-family="Open Sans, Noto Sans SC, Noto Sans TC, Noto Sans JP, Noto Sans KR" font-size="10.00" fill="white">gti &amp;&amp; gti->sthread</text></g><!-- process_block_11&#45;&gt;ifs_block_12 --><g id="edge12" class="edge"><title>process_block_11->ifs_block_12</title><path fill="none" stroke="#000000" d="M619,-825.778C619,-820.729 619,-815.123 619,-809.634"/><polygon fill="#000000" stroke="#000000" points="622.5,-809.399 619,-799.4 615.5,-809.4 622.5,-809.399"/></g><!-- process_block_13 --><g id="node13" class="node"><title>process_block_13</title><polygon fill="url(#g-processo5vch7x1auldkn099vygb9)" stroke="#3f51b5" points="829,-726 667,-726 667,-690 829,-690 829,-726"/><text text-anchor="start" x="674" y="-705.5" font-family="Open Sans, Noto Sans SC, Noto Sans TC, Noto Sans JP, Noto Sans KR" font-size="10.00" fill="white">sthread_terminate(gti->sthread)</text></g><!-- ifs_block_12&#45;&gt;process_block_13 --><g id="edge13" class="edge"><title>ifs_block_12->process_block_13</title><path fill="none" stroke="#000000" d="M642.361,-767.78C660.404,-757.57 685.817,-743.189 707.196,-731.09"/><polygon fill="#000000" stroke="#000000" points="709.099,-734.035 716.079,-726.064 705.652,-727.943 709.099,-734.035"/><text text-anchor="start" x="692" y="-743" font-family="Open Sans, Noto Sans SC, Noto Sans TC, Noto Sans JP, Noto Sans KR" font-weight="bold" font-size="10.00" fill="#000000"> True </text><polyline fill="none" stroke="#000000" points="720,-739 694.82,-739 "/></g><!-- process_block_14 --><g id="node14" class="node"><title>process_block_14</title><polygon fill="url(#g-processo5vch7x1auldkn099vygb9)" stroke="#3f51b5" points="833.5,-653 634.5,-653 634.5,-617 833.5,-617 833.5,-653"/><text text-anchor="start" x="641.5" y="-632.5" font-family="Open Sans, Noto Sans SC, Noto Sans TC, Noto Sans JP, Noto Sans KR" font-size="10.00" fill="white">safe_array_unlock(cio->gpio_thread_arr)</text></g><!-- ifs_block_12&#45;&gt;process_block_14 --><g id="edge15" class="edge"><title>ifs_block_12->process_block_14</title><path fill="none" stroke="#000000" d="M609.968,-764.773C600.512,-745.374 588.963,-712.69 604,-690 613.45,-675.742 627.411,-665.17 642.721,-657.334"/><polygon fill="#000000" stroke="#000000" points="644.309,-660.455 651.867,-653.029 641.329,-654.121 644.309,-660.455"/><text text-anchor="start" x="604" y="-706.5" font-family="Open Sans, Noto Sans SC, Noto Sans TC, Noto Sans JP, Noto Sans KR" font-weight="bold" font-size="10.00" fill="#000000"> False </text><polyline fill="none" stroke="#000000" points="634,-702.5 598.457,-702.5 "/></g><!-- process_block_13&#45;&gt;process_block_14 --><g id="edge14" class="edge"><title>process_block_13->process_block_14</title><path fill="none" stroke="#000000" d="M744.539,-689.955C742.991,-681.883 741.13,-672.176 739.405,-663.182"/><polygon fill="#000000" stroke="#000000" points="742.79,-662.252 737.469,-653.09 735.916,-663.571 742.79,-662.252"/></g><!-- process_block_15 --><g id="node15" class="node"><title>process_block_15</title><polygon fill="url(#g-processo5vch7x1auldkn099vygb9)" stroke="#3f51b5" points="870.5,-580 803.5,-580 803.5,-544 870.5,-544 870.5,-580"/><text text-anchor="start" x="810.5" y="-559.5" font-family="Open Sans, Noto Sans SC, Noto Sans TC, Noto Sans JP, Noto Sans KR" font-size="10.00" fill="white">usleep(100)</text></g><!-- process_block_14&#45;&gt;process_block_15 --><g id="edge16" class="edge"><title>process_block_14->process_block_15</title><path fill="none" stroke="#000000" d="M759.461,-616.955C772.583,-607.654 788.767,-596.184 802.949,-586.133"/><polygon fill="#000000" stroke="#000000" points="805.34,-588.728 811.475,-580.09 801.293,-583.017 805.34,-588.728"/></g><!-- process_block_15&#45;&gt;nop_block_8 --><g id="edge18" class="edge"><title>process_block_15->nop_block_8</title><path fill="none" stroke="#000000" d="M870.761,-572.488C898.067,-583.316 932,-603.176 932,-635 932,-980 932,-980 932,-980 932,-996.233 918.575,-1010.8 908.851,-1019.22"/><polygon fill="#000000" stroke="#000000" points="906.463,-1016.64 900.774,-1025.58 910.795,-1022.14 906.463,-1016.64"/></g><!-- process_block_17 --><g id="node17" class="node"><title>process_block_17</title><polygon fill="url(#g-processo5vch7x1auldkn099vygb9)" stroke="#3f51b5" points="333,-862 279,-862 279,-826 333,-826 333,-862"/><text text-anchor="start" x="295" y="-841.5" font-family="Open Sans, Noto Sans SC, Noto Sans TC, Noto Sans JP, Noto Sans KR" font-size="10.00" fill="white">a = 0</text></g><!-- process_block_16&#45;&gt;process_block_17 --><g id="edge20" class="edge"><title>process_block_16->process_block_17</title><path fill="none" stroke="#000000" d="M335.141,-888.778C331.518,-883.211 327.455,-876.967 323.538,-870.949"/><polygon fill="#000000" stroke="#000000" points="326.362,-868.872 317.974,-862.4 320.495,-872.69 326.362,-868.872"/></g><!-- nop_block_18 --><g id="node18" class="node"><title>nop_block_18</title><ellipse fill="#000000" stroke="#000000" cx="296" cy="-781" rx="1.8" ry="1.8"/><text text-anchor="start" x="292.2" y="-786.8" font-family="Open Sans, Noto Sans SC, Noto Sans TC, Noto Sans JP, Noto Sans KR" font-weight="bold" font-size="10.00" fill="#000000"> </text></g><!-- process_block_17&#45;&gt;nop_block_18 --><g id="edge21" class="edge"><title>process_block_17->nop_block_18</title><path fill="none" stroke="#000000" d="M303.108,-825.778C300.616,-810.079 297.269,-788.994 296.284,-782.788"/></g><!-- ifs_block_19 --><g id="node19" class="node"><title>ifs_block_19</title><polygon fill="url(#g-decisiono5vch7x1auldkn099vygb9)" stroke="#d1461b" points="296,-726 194.371,-708 296,-690 397.629,-708 296,-726"/><text text-anchor="start" x="243" y="-705.5" font-family="Open Sans, Noto Sans SC, Noto Sans TC, Noto Sans JP, Noto Sans KR" font-size="10.00" fill="white">a &lt; cio->channel_count</text></g><!-- nop_block_18&#45;&gt;ifs_block_19 --><g id="edge35" class="edge"><title>nop_block_18->ifs_block_19</title><path fill="none" stroke="#000000" d="M296,-779.195C296,-773.232 296,-753.558 296,-736.399"/><polygon fill="#000000" stroke="#000000" points="299.5,-736.186 296,-726.186 292.5,-736.186 299.5,-736.186"/></g><!-- ifs_block_20 --><g id="node20" class="node"><title>ifs_block_20</title><polygon fill="url(#g-decisiono5vch7x1auldkn099vygb9)" stroke="#d1461b" points="251,-653 128.746,-635 251,-617 373.254,-635 251,-653"/><text text-anchor="start" x="185.5" y="-632.5" font-family="Open Sans, Noto Sans SC, Noto Sans TC, Noto Sans JP, Noto Sans KR" font-size="10.00" fill="white">cio->channels[a].w1 != NULL</text></g><!-- ifs_block_19&#45;&gt;ifs_block_20 --><g id="edge22" class="edge"><title>ifs_block_19->ifs_block_20</title><path fill="none" stroke="#000000" d="M285.789,-691.435C280.133,-682.26 272.983,-670.661 266.637,-660.367"/><polygon fill="#000000" stroke="#000000" points="269.553,-658.428 261.327,-651.752 263.595,-662.101 269.553,-658.428"/><text text-anchor="start" x="277" y="-670" font-family="Open Sans, Noto Sans SC, Noto Sans TC, Noto Sans JP, Noto Sans KR" font-weight="bold" font-size="10.00" fill="#000000"> True </text><polyline fill="none" stroke="#000000" points="305,-666 270.276,-666 "/></g><!-- ifs_block_30 --><g id="node30" class="node"><title>ifs_block_30</title><polygon fill="url(#g-decisiono5vch7x1auldkn099vygb9)" stroke="#d1461b" points="504,-653 438.465,-635 504,-617 569.535,-635 504,-653"/><text text-anchor="start" x="472.5" y="-632.5" font-family="Open Sans, Noto Sans SC, Noto Sans TC, Noto Sans JP, Noto Sans KR" font-size="10.00" fill="white">cio->channels</text></g><!-- ifs_block_19&#45;&gt;ifs_block_30 --><g id="edge38" class="edge"><title>ifs_block_19->ifs_block_30</title><path fill="none" stroke="#000000" d="M330.347,-695.946C367.419,-682.935 426.345,-662.254 465.1,-648.653"/><polygon fill="#000000" stroke="#000000" points="466.699,-651.801 474.976,-645.186 464.381,-645.195 466.699,-651.801"/><text text-anchor="start" x="413" y="-670" font-family="Open Sans, Noto Sans SC, Noto Sans TC, Noto Sans JP, Noto Sans KR" font-weight="bold" font-size="10.00" fill="#000000"> False </text><polyline fill="none" stroke="#000000" points="443,-666 415.207,-666 "/></g><!-- process_block_21 --><g id="node21" class="node"><title>process_block_21</title><polygon fill="url(#g-processo5vch7x1auldkn099vygb9)" stroke="#3f51b5" points="228,-580 98,-580 98,-544 228,-544 228,-580"/><text text-anchor="start" x="105" y="-559.5" font-family="Open Sans, Noto Sans SC, Noto Sans TC, Noto Sans JP, Noto Sans KR" font-size="10.00" fill="white">free(cio->channels[a].w1)</text></g><!-- ifs_block_20&#45;&gt;process_block_21 --><g id="edge23" class="edge"><title>ifs_block_20->process_block_21</title><path fill="none" stroke="#000000" d="M232.337,-619.519C220.806,-609.953 205.752,-597.465 192.619,-586.57"/><polygon fill="#000000" stroke="#000000" points="194.67,-583.724 184.739,-580.033 190.201,-589.112 194.67,-583.724"/><text text-anchor="start" x="213" y="-597" font-family="Open Sans, Noto Sans SC, Noto Sans TC, Noto Sans JP, Noto Sans KR" font-weight="bold" font-size="10.00" fill="#000000"> True </text><polyline fill="none" stroke="#000000" points="241,-593 200.173,-593 "/></g><!-- ifs_block_22 --><g id="node22" class="node"><title>ifs_block_22</title><polygon fill="url(#g-decisiono5vch7x1auldkn099vygb9)" stroke="#d1461b" points="298,-517 114.037,-499 298,-481 481.963,-499 298,-517"/><text text-anchor="start" x="195.5" y="-496.5" font-family="Open Sans, Noto Sans SC, Noto Sans TC, Noto Sans JP, Noto Sans KR" font-size="10.00" fill="white">channelio_gpio_in(&amp;cio->channels[a], 1) == 0</text></g><!-- ifs_block_20&#45;&gt;ifs_block_22 --><g id="edge25" class="edge"><title>ifs_block_20->ifs_block_22</title><path fill="none" stroke="#000000" d="M256.953,-617.776C264.925,-594.706 279.158,-553.52 288.591,-526.227"/><polygon fill="#000000" stroke="#000000" points="291.989,-527.109 291.947,-516.514 285.373,-524.822 291.989,-527.109"/><text text-anchor="start" x="283" y="-560.5" font-family="Open Sans, Noto Sans SC, Noto Sans TC, Noto Sans JP, Noto Sans KR" font-weight="bold" font-size="10.00" fill="#000000"> False </text><polyline fill="none" stroke="#000000" points="313,-556.5 278.146,-556.5 "/></g><!-- process_block_21&#45;&gt;ifs_block_22 --><g id="edge24" class="edge"><title>process_block_21->ifs_block_22</title><path fill="none" stroke="#000000" d="M201.686,-543.947C218.778,-535.97 238.905,-526.578 256.329,-518.447"/><polygon fill="#000000" stroke="#000000" points="258.112,-521.477 265.694,-514.076 255.152,-515.134 258.112,-521.477"/></g><!-- ifs_block_23 --><g id="node23" class="node"><title>ifs_block_23</title><polygon fill="url(#g-decisiono5vch7x1auldkn099vygb9)" stroke="#d1461b" points="343,-444 228.896,-426 343,-408 457.104,-426 343,-444"/><text text-anchor="start" x="282.5" y="-423.5" font-family="Open Sans, Noto Sans SC, Noto Sans TC, Noto Sans JP, Noto Sans KR" font-size="10.00" fill="white">cio->channels[a].gpio1 > 0</text></g><!-- ifs_block_22&#45;&gt;ifs_block_23 --><g id="edge26" class="edge"><title>ifs_block_22->ifs_block_23</title><path fill="none" stroke="#000000" d="M308.664,-481.7C314.236,-472.661 321.161,-461.427 327.33,-451.42"/><polygon fill="#000000" stroke="#000000" points="330.454,-453.023 332.722,-442.673 324.495,-449.349 330.454,-453.023"/><text text-anchor="start" x="324" y="-461" font-family="Open Sans, Noto Sans SC, Noto Sans TC, Noto Sans JP, Noto Sans KR" font-weight="bold" font-size="10.00" fill="#000000"> True </text><polyline fill="none" stroke="#000000" points="352,-457 323.794,-457 "/></g><!-- process_block_27 --><g id="node27" class="node"><title>process_block_27</title><polygon fill="url(#g-processo5vch7x1auldkn099vygb9)" stroke="#3f51b5" points="349,-162 145,-162 145,-126 349,-126 349,-162"/><text text-anchor="start" x="152" y="-141.5" font-family="Open Sans, Noto Sans SC, Noto Sans TC, Noto Sans JP, Noto Sans KR" font-size="10.00" fill="white">lck_free(cio->channels[a].gpio1_value.lck)</text></g><!-- ifs_block_22&#45;&gt;process_block_27 --><g id="edge33" class="edge"><title>ifs_block_22->process_block_27</title><path fill="none" stroke="#000000" d="M243.78,-486.211C195.017,-473.085 131,-451.076 131,-426 131,-426 131,-426 131,-207 131,-188.92 142.016,-176.001 157.259,-166.778"/><polygon fill="#000000" stroke="#000000" points="158.961,-169.837 166.119,-162.026 155.652,-163.668 158.961,-169.837"/><text text-anchor="start" x="131" y="-315" font-family="Open Sans, Noto Sans SC, Noto Sans TC, Noto Sans JP, Noto Sans KR" font-weight="bold" font-size="10.00" fill="#000000"> False </text><polyline fill="none" stroke="#000000" points="161,-311 131,-311 "/></g><!-- process_block_24 --><g id="node24" class="node"><title>process_block_24</title><polygon fill="url(#g-processo5vch7x1auldkn099vygb9)" stroke="#3f51b5" points="435.5,-371 232.5,-371 232.5,-335 435.5,-335 435.5,-371"/><text text-anchor="start" x="239.5" y="-350.5" font-family="Open Sans, Noto Sans SC, Noto Sans TC, Noto Sans JP, Noto Sans KR" font-size="10.00" fill="white">gpio_set_value(cio->channels[a].gpio1, 0)</text></g><!-- ifs_block_23&#45;&gt;process_block_24 --><g id="edge27" class="edge"><title>ifs_block_23->process_block_24</title><path fill="none" stroke="#000000" d="M340.821,-408.329C339.808,-400.112 338.579,-390.143 337.445,-380.942"/><polygon fill="#000000" stroke="#000000" points="340.919,-380.512 336.221,-371.016 333.971,-381.369 340.919,-380.512"/><text text-anchor="start" x="340" y="-388" font-family="Open Sans, Noto Sans SC, Noto Sans TC, Noto Sans JP, Noto Sans KR" font-weight="bold" font-size="10.00" fill="#000000"> True </text><polyline fill="none" stroke="#000000" points="368,-384 337.874,-384 "/></g><!-- ifs_block_25 --><g id="node25" class="node"><title>ifs_block_25</title><polygon fill="url(#g-decisiono5vch7x1auldkn099vygb9)" stroke="#d1461b" points="448,-298 333.896,-280 448,-262 562.104,-280 448,-298"/><text text-anchor="start" x="387.5" y="-277.5" font-family="Open Sans, Noto Sans SC, Noto Sans TC, Noto Sans JP, Noto Sans KR" font-size="10.00" fill="white">cio->channels[a].gpio2 > 0</text></g><!-- ifs_block_23&#45;&gt;ifs_block_25 --><g id="edge29" class="edge"><title>ifs_block_23->ifs_block_25</title><path fill="none" stroke="#000000" d="M396.899,-416.479C423.063,-408.851 452.193,-395.224 468,-371 480.838,-351.325 472.672,-324.686 463.203,-305.316"/><polygon fill="#000000" stroke="#000000" points="466.292,-303.671 458.536,-296.454 460.099,-306.933 466.292,-303.671"/><text text-anchor="start" x="475" y="-351.5" font-family="Open Sans, Noto Sans SC, Noto Sans TC, Noto Sans JP, Noto Sans KR" font-weight="bold" font-size="10.00" fill="#000000"> False </text><polyline fill="none" stroke="#000000" points="505,-347.5 474.621,-347.5 "/></g><!-- process_block_24&#45;&gt;ifs_block_25 --><g id="edge28" class="edge"><title>process_block_24->ifs_block_25</title><path fill="none" stroke="#000000" d="M362.18,-334.955C378.687,-324.385 399.571,-311.012 416.604,-300.104"/><polygon fill="#000000" stroke="#000000" points="418.583,-302.993 425.117,-294.653 414.808,-297.099 418.583,-302.993"/></g><!-- process_block_26 --><g id="node26" class="node"><title>process_block_26</title><polygon fill="url(#g-processo5vch7x1auldkn099vygb9)" stroke="#3f51b5" points="592.5,-225 389.5,-225 389.5,-189 592.5,-189 592.5,-225"/><text text-anchor="start" x="396.5" y="-204.5" font-family="Open Sans, Noto Sans SC, Noto Sans TC, Noto Sans JP, Noto Sans KR" font-size="10.00" fill="white">gpio_set_value(cio->channels[a].gpio2, 0)</text></g><!-- ifs_block_25&#45;&gt;process_block_26 --><g id="edge30" class="edge"><title>ifs_block_25->process_block_26</title><path fill="none" stroke="#000000" d="M457.757,-263.435C462.918,-254.675 469.38,-243.704 475.231,-233.771"/><polygon fill="#000000" stroke="#000000" points="478.318,-235.426 480.378,-225.033 472.287,-231.873 478.318,-235.426"/><text text-anchor="start" x="473" y="-242" font-family="Open Sans, Noto Sans SC, Noto Sans TC, Noto Sans JP, Noto Sans KR" font-weight="bold" font-size="10.00" fill="#000000"> True </text><polyline fill="none" stroke="#000000" points="501,-238 473.012,-238 "/></g><!-- ifs_block_25&#45;&gt;process_block_27 --><g id="edge32" class="edge"><title>ifs_block_25->process_block_27</title><path fill="none" stroke="#000000" d="M412.034,-267.639C386.958,-258.094 353.401,-243.417 327,-225 304.85,-209.548 283.554,-187.515 268.511,-170.328"/><polygon fill="#000000" stroke="#000000" points="270.818,-167.643 261.652,-162.33 265.505,-172.2 270.818,-167.643"/><text text-anchor="start" x="327" y="-205.5" font-family="Open Sans, Noto Sans SC, Noto Sans TC, Noto Sans JP, Noto Sans KR" font-weight="bold" font-size="10.00" fill="#000000"> False </text><polyline fill="none" stroke="#000000" points="357,-201.5 298.871,-201.5 "/></g><!-- process_block_26&#45;&gt;process_block_27 --><g id="edge31" class="edge"><title>process_block_26->process_block_27</title><path fill="none" stroke="#000000" d="M421.079,-188.947C391.599,-181.335 357.124,-172.434 326.667,-164.57"/><polygon fill="#000000" stroke="#000000" points="327.488,-161.167 316.931,-162.056 325.738,-167.945 327.488,-161.167"/></g><!-- process_block_28 --><g id="node28" class="node"><title>process_block_28</title><polygon fill="url(#g-processo5vch7x1auldkn099vygb9)" stroke="#3f51b5" points="314,-99 110,-99 110,-63 314,-63 314,-99"/><text text-anchor="start" x="117" y="-78.5" font-family="Open Sans, Noto Sans SC, Noto Sans TC, Noto Sans JP, Noto Sans KR" font-size="10.00" fill="white">lck_free(cio->channels[a].gpio2_value.lck)</text></g><!-- process_block_27&#45;&gt;process_block_28 --><g id="edge34" class="edge"><title>process_block_27->process_block_28</title><path fill="none" stroke="#000000" d="M236.877,-125.778C233.856,-120.34 230.476,-114.257 227.205,-108.369"/><polygon fill="#000000" stroke="#000000" points="230.138,-106.441 222.222,-99.3995 224.019,-109.841 230.138,-106.441"/></g><!-- process_block_29 --><g id="node29" class="node"><title>process_block_29</title><polygon fill="url(#g-processo5vch7x1auldkn099vygb9)" stroke="#3f51b5" points="97,-36 43,-36 43,-0 97,-0 97,-36"/><text text-anchor="start" x="61.5" y="-15.5" font-family="Open Sans, Noto Sans SC, Noto Sans TC, Noto Sans JP, Noto Sans KR" font-size="10.00" fill="white">a++</text></g><!-- process_block_28&#45;&gt;process_block_29 --><g id="edge36" class="edge"><title>process_block_28->process_block_29</title><path fill="none" stroke="#000000" d="M171.308,-62.9467C150.884,-53.8851 126.34,-42.9958 106.526,-34.2051"/><polygon fill="#000000" stroke="#000000" points="107.778,-30.9316 97.2176,-30.0754 104.939,-37.3301 107.778,-30.9316"/></g><!-- process_block_29&#45;&gt;nop_block_18 --><g id="edge37" class="edge"><title>process_block_29->nop_block_18</title><path fill="none" stroke="#000000" d="M42.7357,-29.4663C23.0809,-39.7604 0,-56.9657 0,-81 0,-708 0,-708 0,-708 0,-767.528 228.526,-778.805 283.984,-780.666"/><polygon fill="#000000" stroke="#000000" points="284.013,-784.168 294.11,-780.959 284.216,-777.171 284.013,-784.168"/></g><!-- process_block_31 --><g id="node31" class="node"><title>process_block_31</title><polygon fill="url(#g-processo5vch7x1auldkn099vygb9)" stroke="#3f51b5" points="555,-580 453,-580 453,-544 555,-544 555,-580"/><text text-anchor="start" x="460" y="-559.5" font-family="Open Sans, Noto Sans SC, Noto Sans TC, Noto Sans JP, Noto Sans KR" font-size="10.00" fill="white">free(cio->channels)</text></g><!-- ifs_block_30&#45;&gt;process_block_31 --><g id="edge39" class="edge"><title>ifs_block_30->process_block_31</title><path fill="none" stroke="#000000" d="M504,-616.955C504,-608.883 504,-599.176 504,-590.182"/><polygon fill="#000000" stroke="#000000" points="507.5,-590.09 504,-580.09 500.5,-590.09 507.5,-590.09"/><text text-anchor="start" x="504" y="-597" font-family="Open Sans, Noto Sans SC, Noto Sans TC, Noto Sans JP, Noto Sans KR" font-weight="bold" font-size="10.00" fill="#000000"> True </text><polyline fill="none" stroke="#000000" points="532,-593 504,-593 "/></g><!-- ifs_block_32 --><g id="node32" class="node"><title>ifs_block_32</title><polygon fill="url(#g-decisiono5vch7x1auldkn099vygb9)" stroke="#d1461b" points="673,-517 603.806,-499 673,-481 742.194,-499 673,-517"/><text text-anchor="start" x="639.5" y="-496.5" font-family="Open Sans, Noto Sans SC, Noto Sans TC, Noto Sans JP, Noto Sans KR" font-size="10.00" fill="white">cio->watch_list</text></g><!-- ifs_block_30&#45;&gt;ifs_block_32 --><g id="edge41" class="edge"><title>ifs_block_30->ifs_block_32</title><path fill="none" stroke="#000000" d="M524.801,-622.593C542.011,-612.008 566.817,-596.001 587,-580 610.415,-561.436 635.032,-537.768 651.899,-520.818"/><polygon fill="#000000" stroke="#000000" points="654.542,-523.123 659.072,-513.545 649.558,-518.208 654.542,-523.123"/><text text-anchor="start" x="628" y="-560.5" font-family="Open Sans, Noto Sans SC, Noto Sans TC, Noto Sans JP, Noto Sans KR" font-weight="bold" font-size="10.00" fill="#000000"> False </text><polyline fill="none" stroke="#000000" points="658,-556.5 615.532,-556.5 "/></g><!-- process_block_31&#45;&gt;ifs_block_32 --><g id="edge40" class="edge"><title>process_block_31->ifs_block_32</title><path fill="none" stroke="#000000" d="M552.429,-543.947C578.489,-534.232 610.185,-522.416 634.538,-513.338"/><polygon fill="#000000" stroke="#000000" points="636.004,-516.527 644.152,-509.754 633.559,-509.968 636.004,-516.527"/></g><!-- process_block_33 --><g id="node33" class="node"><title>process_block_33</title><polygon fill="url(#g-processo5vch7x1auldkn099vygb9)" stroke="#3f51b5" points="863,-444 757,-444 757,-408 863,-408 863,-444"/><text text-anchor="start" x="764" y="-423.5" font-family="Open Sans, Noto Sans SC, Noto Sans TC, Noto Sans JP, Noto Sans KR" font-size="10.00" fill="white">free(cio->watch_list)</text></g><!-- ifs_block_32&#45;&gt;process_block_33 --><g id="edge42" class="edge"><title>ifs_block_32->process_block_33</title><path fill="none" stroke="#000000" d="M695.931,-486.781C715.298,-476.462 743.559,-461.403 767.105,-448.856"/><polygon fill="#000000" stroke="#000000" points="769.021,-451.801 776.201,-444.01 765.73,-445.624 769.021,-451.801"/><text text-anchor="start" x="750" y="-461" font-family="Open Sans, Noto Sans SC, Noto Sans TC, Noto Sans JP, Noto Sans KR" font-weight="bold" font-size="10.00" fill="#000000"> True </text><polyline fill="none" stroke="#000000" points="778,-457 753.453,-457 "/></g><!-- process_block_34 --><g id="node34" class="node"><title>process_block_34</title><polygon fill="url(#g-processo5vch7x1auldkn099vygb9)" stroke="#3f51b5" points="770.5,-371 665.5,-371 665.5,-335 770.5,-335 770.5,-371"/><text text-anchor="start" x="672.5" y="-350.5" font-family="Open Sans, Noto Sans SC, Noto Sans TC, Noto Sans JP, Noto Sans KR" font-size="10.00" fill="white">lck_free(cio->wl_lck)</text></g><!-- ifs_block_32&#45;&gt;process_block_34 --><g id="edge44" class="edge"><title>ifs_block_32->process_block_34</title><path fill="none" stroke="#000000" d="M676.018,-481.632C679.462,-463.125 685.708,-433.094 694,-408 697.04,-398.8 701.038,-389.026 704.898,-380.309"/><polygon fill="#000000" stroke="#000000" points="708.177,-381.555 709.138,-371.004 701.807,-378.652 708.177,-381.555"/><text text-anchor="start" x="694" y="-424.5" font-family="Open Sans, Noto Sans SC, Noto Sans TC, Noto Sans JP, Noto Sans KR" font-weight="bold" font-size="10.00" fill="#000000"> False </text><polyline fill="none" stroke="#000000" points="724,-420.5 690.266,-420.5 "/></g><!-- process_block_33&#45;&gt;process_block_34 --><g id="edge43" class="edge"><title>process_block_33->process_block_34</title><path fill="none" stroke="#000000" d="M787.258,-407.955C775.648,-398.742 761.354,-387.401 748.773,-377.418"/><polygon fill="#000000" stroke="#000000" points="750.808,-374.564 740.799,-371.09 746.457,-380.048 750.808,-374.564"/></g><!-- process_block_35 --><g id="node35" class="node"><title>process_block_35</title><polygon fill="url(#g-processo5vch7x1auldkn099vygb9)" stroke="#3f51b5" points="770.5,-298 665.5,-298 665.5,-262 770.5,-262 770.5,-298"/><text text-anchor="start" x="672.5" y="-277.5" font-family="Open Sans, Noto Sans SC, Noto Sans TC, Noto Sans JP, Noto Sans KR" font-size="10.00" fill="white">lck_free(cio->cb_lck)</text></g><!-- process_block_34&#45;&gt;process_block_35 --><g id="edge45" class="edge"><title>process_block_34->process_block_35</title><path fill="none" stroke="#000000" d="M718,-334.955C718,-326.883 718,-317.176 718,-308.182"/><polygon fill="#000000" stroke="#000000" points="721.5,-308.09 718,-298.09 714.5,-308.09 721.5,-308.09"/></g><!-- process_block_36 --><g id="node36" class="node"><title>process_block_36</title><polygon fill="url(#g-processo5vch7x1auldkn099vygb9)" stroke="#3f51b5" points="745,-225 691,-225 691,-189 745,-189 745,-225"/><text text-anchor="start" x="699.5" y="-204.5" font-family="Open Sans, Noto Sans SC, Noto Sans TC, Noto Sans JP, Noto Sans KR" font-size="10.00" fill="white">free(cio)</text></g><!-- process_block_35&#45;&gt;process_block_36 --><g id="edge46" class="edge"><title>process_block_35->process_block_36</title><path fill="none" stroke="#000000" d="M718,-261.955C718,-253.883 718,-244.176 718,-235.182"/><polygon fill="#000000" stroke="#000000" points="721.5,-235.09 718,-225.09 714.5,-235.09 721.5,-235.09"/></g><!-- terminator_block_37 --><g id="node37" class="node"><title>terminator_block_37</title><ellipse fill="url(#g-terminatoro5vch7x1auldkn099vygb9)" stroke="#C32F06" cx="718" cy="-144" rx="38.0276" ry="18"/><text text-anchor="start" x="693.5" y="-141.5" font-family="Open Sans, Noto Sans SC, Noto Sans TC, Noto Sans JP, Noto Sans KR" font-size="10.00" fill="white">cio = NULL</text></g><!-- process_block_36&#45;&gt;terminator_block_37 --><g id="edge47" class="edge"><title>process_block_36->terminator_block_37</title><path fill="none" stroke="#000000" d="M718,-188.778C718,-183.729 718,-178.123 718,-172.634"/><polygon fill="#000000" stroke="#000000" points="721.5,-172.399 718,-162.4 714.5,-172.4 721.5,-172.399"/></g><!-- comment_block_38 --><g id="node38" class="node"><title>comment_block_38</title><polygon fill="url(#g-commento5vch7x1auldkn099vygb9)" stroke="#ffab40" points="1016,-1373.6 944,-1373.6 944,-1337.6 1022,-1337.6 1022,-1367.6 1016,-1373.6"/><polyline fill="white" stroke="#ffab40" points="1016,-1373.6 1016,-1367.6 " stroke-width="0"/><polyline fill="white" stroke="#ffab40" points="1022,-1367.6 1016,-1367.6 " stroke-width="0"/><text text-anchor="start" x="948" y="-1352.1" font-family="Open Sans, Noto Sans SC, Noto Sans TC, Noto Sans JP, Noto Sans KR" font-size="8.00" fill="black">  1st stop threads!!!</text></g><!-- comment_block_38&#45;&gt;ifs_block_4 --><g id="edge48" class="edge"><title>comment_block_38->ifs_block_4</title><path fill="none" stroke="#000000" stroke-dasharray="5,2" d="M970.64,-1337.56C962.428,-1325.56 951.745,-1309.97 943.859,-1298.45"/></g></g></svg>