<?xml version="1.0" encoding="UTF-8" standalone="no"?><!DOCTYPE svg PUBLIC "-//W3C//DTD SVG 1.1//EN" "http://www.w3.org/Graphics/SVG/1.1/DTD/svg11.dtd"><!-- Generated by graphviz version 2.39.20160930.0541 (20160930.0541) --><!-- Title: FlowChart Pages: 1 --><svg width="315pt" height="500pt" viewBox="0.00 0.00 315 500" xmlns="http://www.w3.org/2000/svg" xmlns:xlink="http://www.w3.org/1999/xlink"><defs><radialGradient id="g-terminator9arycp0f09wdd3cfdmquxr" cx="0.5" cy="0.5" fx="0.9" fy="0.9" r="1" x1="0%" x2="0%" y1="100%" y2="0%" spreadMethod="pad"><stop offset="0%" stop-color="#C32F06" stop-opacity="1"/><stop offset="100%" stop-color="#C32F06" stop-opacity="1"/></radialGradient><radialGradient id="g-decision9arycp0f09wdd3cfdmquxr" cx="0.5" cy="0.5" fx="0.9" fy="0.9" r="1" x1="0%" x2="0%" y1="100%" y2="0%" spreadMethod="pad"><stop offset="0%" stop-color="#d1461b" stop-opacity="1"/><stop offset="100%" stop-color="#d1461b" stop-opacity="1"/></radialGradient><radialGradient id="g-process9arycp0f09wdd3cfdmquxr" cx="0.5" cy="0.5" fx="0.9" fy="0.9" r="1" x1="0%" x2="0%" y1="100%" y2="0%" spreadMethod="pad"><stop offset="0%" stop-color="#3f51b5" stop-opacity="1"/><stop offset="100%" stop-color="#3f51b5" stop-opacity="1"/></radialGradient><radialGradient id="g-default9arycp0f09wdd3cfdmquxr" cx="0.5" cy="0.5" fx="0.9" fy="0.9" r="1" x1="0%" x2="0%" y1="100%" y2="0%" spreadMethod="pad"><stop offset="0%" stop-color="#005100" stop-opacity="1"/><stop offset="100%" stop-color="#005100" stop-opacity="1"/></radialGradient><radialGradient id="g-module9arycp0f09wdd3cfdmquxr" cx="0.5" cy="0.5" fx="0.9" fy="0.9" r="1" x1="0%" x2="0%" y1="100%" y2="0%" spreadMethod="pad"><stop offset="0%" stop-color="#009688" stop-opacity="1"/><stop offset="100%" stop-color="#009688" stop-opacity="1"/></radialGradient><radialGradient id="g-dataio9arycp0f09wdd3cfdmquxr" cx="0.5" cy="0.5" fx="0.9" fy="0.9" r="1" x1="0%" x2="0%" y1="100%" y2="0%" spreadMethod="pad"><stop offset="0%" stop-color="#607d8b" stop-opacity="1"/><stop offset="100%" stop-color="#607d8b" stop-opacity="1"/></radialGradient><radialGradient id="g-preparation9arycp0f09wdd3cfdmquxr" cx="0.5" cy="0.5" fx="0.9" fy="0.9" r="1" x1="0%" x2="0%" y1="100%" y2="0%" spreadMethod="pad"><stop offset="0%" stop-color="#607d8b" stop-opacity="1"/><stop offset="100%" stop-color="#607d8b" stop-opacity="1"/></radialGradient><radialGradient id="g-comment9arycp0f09wdd3cfdmquxr" cx="0.5" cy="0.5" fx="0.9" fy="0.9" r="1" x1="0%" x2="0%" y1="100%" y2="0%" spreadMethod="pad"><stop offset="0%" stop-color="#ffab40" stop-opacity="1"/><stop offset="100%" stop-color="#ffab40" stop-opacity="1"/></radialGradient><radialGradient id="g-manual9arycp0f09wdd3cfdmquxr" cx="0.5" cy="0.5" fx="0.9" fy="0.9" r="1" x1="0%" x2="0%" y1="100%" y2="0%" spreadMethod="pad"><stop offset="0%" stop-color="#673ab7" stop-opacity="1"/><stop offset="100%" stop-color="#673ab7" stop-opacity="1"/></radialGradient></defs><g id="page0,1_graph0" class="graph" transform="scale(1 1) rotate(0) translate(4 491)"><title>FlowChart</title><!-- terminator_block_1 --><g id="node1" class="node"><title>terminator_block_1</title><ellipse fill="url(#g-terminator9arycp0f09wdd3cfdmquxr)" stroke="#C32F06" cx="96" cy="-469" rx="75.8751" ry="18"/><text text-anchor="start" x="39.5" y="-466.5" font-family="Open Sans, Noto Sans SC, Noto Sans TC, Noto Sans JP, Noto Sans KR" font-size="10.00" fill="white">char channelio_init(void)</text></g><!-- process_block_2 --><g id="node2" class="node"><title>process_block_2</title><polygon fill="url(#g-process9arycp0f09wdd3cfdmquxr)" stroke="#3f51b5" points="176,-424 16,-424 16,-388 176,-388 176,-424"/><text text-anchor="start" x="23" y="-403.5" font-family="Open Sans, Noto Sans SC, Noto Sans TC, Noto Sans JP, Noto Sans KR" font-size="10.00" fill="white">cio = malloc(sizeof(TChannelIo))</text></g><!-- terminator_block_1&#45;&gt;process_block_2 --><g id="edge1" class="edge"><title>terminator_block_1->process_block_2</title><path fill="none" stroke="#000000" d="M96,-450.778C96,-445.729 96,-440.123 96,-434.634"/><polygon fill="#000000" stroke="#000000" points="99.5001,-434.399 96,-424.4 92.5001,-434.4 99.5001,-434.399"/></g><!-- ifs_block_3 --><g id="node3" class="node"><title>ifs_block_3</title><polygon fill="url(#g-decision9arycp0f09wdd3cfdmquxr)" stroke="#d1461b" points="96,-361 36.7855,-343 96,-325 155.215,-343 96,-361"/><text text-anchor="start" x="68.5" y="-340.5" font-family="Open Sans, Noto Sans SC, Noto Sans TC, Noto Sans JP, Noto Sans KR" font-size="10.00" fill="white">cio == NULL</text></g><!-- process_block_2&#45;&gt;ifs_block_3 --><g id="edge2" class="edge"><title>process_block_2->ifs_block_3</title><path fill="none" stroke="#000000" d="M96,-387.778C96,-382.729 96,-377.123 96,-371.634"/><polygon fill="#000000" stroke="#000000" points="99.5001,-371.399 96,-361.4 92.5001,-371.4 99.5001,-371.399"/></g><!-- terminator_block_4 --><g id="node4" class="node"><title>terminator_block_4</title><ellipse fill="url(#g-terminator9arycp0f09wdd3cfdmquxr)" stroke="#C32F06" cx="27" cy="-270" rx="27" ry="18"/><text text-anchor="start" x="24.5" y="-267.5" font-family="Open Sans, Noto Sans SC, Noto Sans TC, Noto Sans JP, Noto Sans KR" font-size="10.00" fill="white">0</text></g><!-- ifs_block_3&#45;&gt;terminator_block_4 --><g id="edge3" class="edge"><title>ifs_block_3->terminator_block_4</title><path fill="none" stroke="#000000" d="M77.4881,-330.51C70.3599,-325.241 62.4017,-318.764 56,-312 51.2833,-307.016 46.7666,-301.205 42.7605,-295.522"/><polygon fill="#000000" stroke="#000000" points="45.4093,-293.188 36.9301,-286.836 39.5972,-297.089 45.4093,-293.188"/><text text-anchor="start" x="56" y="-305" font-family="Open Sans, Noto Sans SC, Noto Sans TC, Noto Sans JP, Noto Sans KR" font-weight="bold" font-size="10.00" fill="#000000"> True </text><polyline fill="none" stroke="#000000" points="84,-301 47.4664,-301 "/></g><!-- process_block_5 --><g id="node5" class="node"><title>process_block_5</title><polygon fill="url(#g-process9arycp0f09wdd3cfdmquxr)" stroke="#3f51b5" points="291,-288 119,-288 119,-252 291,-252 291,-288"/><text text-anchor="start" x="126" y="-267.5" font-family="Open Sans, Noto Sans SC, Noto Sans TC, Noto Sans JP, Noto Sans KR" font-size="10.00" fill="white">memset(cio, 0, sizeof(TChannelIo))</text></g><!-- ifs_block_3&#45;&gt;process_block_5 --><g id="edge4" class="edge"><title>ifs_block_3->process_block_5</title><path fill="none" stroke="#000000" d="M114.49,-330.617C129.419,-320.619 150.872,-306.251 169.145,-294.013"/><polygon fill="#000000" stroke="#000000" points="171.456,-296.677 177.818,-288.205 167.561,-290.861 171.456,-296.677"/><text text-anchor="start" x="157" y="-305" font-family="Open Sans, Noto Sans SC, Noto Sans TC, Noto Sans JP, Noto Sans KR" font-weight="bold" font-size="10.00" fill="#000000"> False </text><polyline fill="none" stroke="#000000" points="187,-301 158.595,-301 "/></g><!-- process_block_6 --><g id="node6" class="node"><title>process_block_6</title><polygon fill="url(#g-process9arycp0f09wdd3cfdmquxr)" stroke="#3f51b5" points="261,-225 149,-225 149,-189 261,-189 261,-225"/><text text-anchor="start" x="156" y="-204.5" font-family="Open Sans, Noto Sans SC, Noto Sans TC, Noto Sans JP, Noto Sans KR" font-size="10.00" fill="white">cio->cb_lck = lck_init()</text></g><!-- process_block_5&#45;&gt;process_block_6 --><g id="edge5" class="edge"><title>process_block_5->process_block_6</title><path fill="none" stroke="#000000" d="M205,-251.778C205,-246.729 205,-241.123 205,-235.634"/><polygon fill="#000000" stroke="#000000" points="208.5,-235.399 205,-225.4 201.5,-235.4 208.5,-235.399"/></g><!-- process_block_7 --><g id="node7" class="node"><title>process_block_7</title><polygon fill="url(#g-process9arycp0f09wdd3cfdmquxr)" stroke="#3f51b5" points="261,-162 149,-162 149,-126 261,-126 261,-162"/><text text-anchor="start" x="156" y="-141.5" font-family="Open Sans, Noto Sans SC, Noto Sans TC, Noto Sans JP, Noto Sans KR" font-size="10.00" fill="white">cio->wl_lck = lck_init()</text></g><!-- process_block_6&#45;&gt;process_block_7 --><g id="edge6" class="edge"><title>process_block_6->process_block_7</title><path fill="none" stroke="#000000" d="M205,-188.778C205,-183.729 205,-178.123 205,-172.634"/><polygon fill="#000000" stroke="#000000" points="208.5,-172.399 205,-162.4 201.5,-172.4 208.5,-172.399"/></g><!-- process_block_8 --><g id="node8" class="node"><title>process_block_8</title><polygon fill="url(#g-process9arycp0f09wdd3cfdmquxr)" stroke="#3f51b5" points="302,-99 108,-99 108,-63 302,-63 302,-99"/><text text-anchor="start" x="115" y="-78.5" font-family="Open Sans, Noto Sans SC, Noto Sans TC, Noto Sans JP, Noto Sans KR" font-size="10.00" fill="white">cio->gpio_thread_arr = safe_array_init()</text></g><!-- process_block_7&#45;&gt;process_block_8 --><g id="edge7" class="edge"><title>process_block_7->process_block_8</title><path fill="none" stroke="#000000" d="M205,-125.778C205,-120.729 205,-115.123 205,-109.634"/><polygon fill="#000000" stroke="#000000" points="208.5,-109.399 205,-99.3995 201.5,-109.4 208.5,-109.399"/></g><!-- terminator_block_9 --><g id="node9" class="node"><title>terminator_block_9</title><ellipse fill="url(#g-terminator9arycp0f09wdd3cfdmquxr)" stroke="#C32F06" cx="205" cy="-18" rx="27" ry="18"/><text text-anchor="start" x="202.5" y="-15.5" font-family="Open Sans, Noto Sans SC, Noto Sans TC, Noto Sans JP, Noto Sans KR" font-size="10.00" fill="white">1</text></g><!-- process_block_8&#45;&gt;terminator_block_9 --><g id="edge8" class="edge"><title>process_block_8->terminator_block_9</title><path fill="none" stroke="#000000" d="M205,-62.7778C205,-57.7287 205,-52.1226 205,-46.6335"/><polygon fill="#000000" stroke="#000000" points="208.5,-46.3995 205,-36.3995 201.5,-46.3995 208.5,-46.3995"/></g></g></svg>